<mxfile host="app.diagrams.net" modified="2023-08-24T03:01:22.502Z" agent="Mozilla/5.0 (Macintosh; Intel Mac OS X 10_15_7) AppleWebKit/537.36 (KHTML, like Gecko) Chrome/116.0.0.0 Safari/537.36" version="21.3.7" etag="XnQedLhVUIGlh0ZeKBaV" type="github">
  <diagram name="第 1 页" id="WUWVg09c_TJfbnk_h3i5">
    <mxGraphModel>
      <root>
        <mxCell id="0" />
        <mxCell id="1" parent="0" />
      </root>
    </mxGraphModel>
  </diagram>
</mxfile>
